<?xml version="1.0" encoding="UTF-8" standalone="no"?>
<!-- Created with Inkscape (http://www.inkscape.org/) -->

<svg
   width="24"
   height="24"
   viewBox="0 0 22.5 22.5"
   id="svg3476"
   version="1.1"
   inkscape:version="1.3 (0e150ed6c4, 2023-07-21)"
   sodipodi:docname="CSS3_logo_and_wordmark.svg"
   xmlns:inkscape="http://www.inkscape.org/namespaces/inkscape"
   xmlns:sodipodi="http://sodipodi.sourceforge.net/DTD/sodipodi-0.dtd"
   xmlns="http://www.w3.org/2000/svg"
   xmlns:svg="http://www.w3.org/2000/svg"
   xmlns:rdf="http://www.w3.org/1999/02/22-rdf-syntax-ns#"
   xmlns:cc="http://creativecommons.org/ns#"
   xmlns:dc="http://purl.org/dc/elements/1.1/">
  <defs
     id="defs3478" />
  <sodipodi:namedview
     id="base"
     pagecolor="#ffffff"
     bordercolor="#666666"
     borderopacity="1.0"
     inkscape:pageopacity="0.0"
     inkscape:pageshadow="2"
     inkscape:zoom="3.959798"
     inkscape:cx="51.265242"
     inkscape:cy="78.413091"
     inkscape:document-units="px"
     inkscape:current-layer="g3013"
     showgrid="false"
     fit-margin-top="0"
     fit-margin-left="0"
     fit-margin-right="0"
     fit-margin-bottom="0"
     inkscape:window-width="1417"
     inkscape:window-height="1246"
     inkscape:window-x="0"
     inkscape:window-y="0"
     inkscape:window-maximized="0"
     inkscape:showpageshadow="2"
     inkscape:pagecheckerboard="0"
     inkscape:deskcolor="#d1d1d1" />
  <metadata
     id="metadata3481">
    <rdf:RDF>
      <cc:Work
         rdf:about="">
        <dc:format>image/svg+xml</dc:format>
        <dc:type
           rdf:resource="http://purl.org/dc/dcmitype/StillImage" />
      </cc:Work>
    </rdf:RDF>
  </metadata>
  <g
     inkscape:label="Calque 1"
     inkscape:groupmode="layer"
     id="layer1"
     transform="translate(-193.633,-276.3622)">
    <g
       id="g3013"
       transform="translate(119,276.3622)">
      <polygon
         id="polygon2989"
         points="404.321,470.819 255.778,512 107.644,470.877 74.633,100.62 437.367,100.62 "
         style="fill:#264de4"
         transform="matrix(0.0455783,0,0,0.0455783,74.214955,-2.7110891)" />
      <polygon
         id="polygon2991"
         points="404.27,130.894 256,130.894 256,480.523 376.03,447.246 "
         style="fill:#2965f1"
         transform="matrix(0.0455783,0,0,0.0455783,74.214955,-2.7110891)" />
      <polygon
         id="polygon2993"
         points="154.38,313.627 256,313.627 256,268.217 150.31,268.217 "
         style="fill:#ebebeb"
         transform="matrix(0.0455783,0,0,0.0455783,74.214955,-2.7110891)" />
      <polygon
         id="polygon2995"
         points="255.843,176.305 142.132,176.305 146.26,221.716 256,221.716 256,176.305 "
         style="fill:#ebebeb"
         transform="matrix(0.0455783,0,0,0.0455783,74.214955,-2.7110891)" />
      <polygon
         id="polygon2997"
         points="205.227,372.55 201.994,336.333 177.419,336.333 156.409,336.333 162.771,407.634 255.791,433.457 256,433.399 256,386.153 255.801,386.206 "
         style="fill:#ebebeb"
         transform="matrix(0.0455783,0,0,0.0455783,74.214955,-2.7110891)" />
      <polygon
         id="polygon3005"
         points="360.291,280.411 361.399,268.217 369.597,176.305 255.843,176.305 255.843,221.716 319.831,221.716 315.699,268.217 255.843,268.217 255.843,313.627 311.761,313.627 306.49,372.521 255.843,386.191 255.843,433.435 348.937,407.634 349.62,399.962 "
         style="fill:#ffffff"
         transform="matrix(0.0455783,0,0,0.0455783,74.214955,-2.7110891)" />
    </g>
  </g>
</svg>
