<svg xmlns="http://www.w3.org/2000/svg" width="24" height="24" viewBox="0 0 22.5 22.5"><path d="M404.321 470.819 255.778 512l-148.134-41.123L74.633 100.62h362.734z" style="fill:#264de4" transform="matrix(.04558 0 0 .04558 -.418 -2.711)"/><path d="M404.27 130.894H256v349.629l120.03-33.277z" style="fill:#2965f1" transform="matrix(.04558 0 0 .04558 -.418 -2.711)"/><path d="M154.38 313.627H256v-45.41H150.31zM255.843 176.305H142.132l4.128 45.411H256v-45.411zM205.227 372.55l-3.233-36.217h-45.585l6.362 71.301 93.02 25.823.209-.058v-47.246l-.199.053z" style="fill:#ebebeb" transform="matrix(.04558 0 0 .04558 -.418 -2.711)"/><path d="m360.291 280.411 1.108-12.194 8.198-91.912H255.843v45.411h63.988l-4.132 46.501h-59.856v45.41h55.918l-5.271 58.894-50.647 13.67v47.244l93.094-25.801.683-7.672z" style="fill:#fff" transform="matrix(.04558 0 0 .04558 -.418 -2.711)"/></svg>